<?xml version="1.0" encoding="utf-8"?>
<!-- Generator: Adobe Illustrator 16.0.2, SVG Export Plug-In . SVG Version: 6.00 Build 0)  -->
<!DOCTYPE svg PUBLIC "-//W3C//DTD SVG 1.1//EN" "http://www.w3.org/Graphics/SVG/1.1/DTD/svg11.dtd">
<svg version="1.1" id="Layer_1" xmlns="http://www.w3.org/2000/svg" xmlns:xlink="http://www.w3.org/1999/xlink" x="0px" y="0px"
	 width="15.768px" height="14.218px" viewBox="0 0 15.768 14.218" enable-background="new 0 0 15.768 14.218" xml:space="preserve">
<g>
	<g>
		<path fill="#FFFFFF" d="M8.791,13.178c0,0,1.682-0.246,1.977-0.443c0.328-0.221,2.133-0.4,2.818-0.982
			c0.588-0.555,0.652-0.898,1.002-1.641c0.254-0.545,0.559-1.162,0.727-1.846c0.096-0.391,0.113-0.796,0.135-1.23
			c0.016-0.32-0.025-0.643-0.08-0.972c-0.322-1.952-1.832-4.079-3.031-5.129c0.24,0.472,0.293,0.999,0.059,1.547
			c-0.203,0.474-0.646,0.967-1.031,1.417c-0.529,0.486-1.07,1.065-1.479,1.443c0,0-0.326,0.303-0.666,0.682
			C8.66,6.646,7.923,7.663,7.865,8.795c-0.042,0.83,0.604,2.133,0.785,2.934C8.865,12.686,8.839,13.047,8.791,13.178z"/>
		
			<linearGradient id="SVGID_1_" gradientUnits="userSpaceOnUse" x1="57.2305" y1="-451.9121" x2="68.6857" y2="-459.4928" gradientTransform="matrix(0.7632 -0.646 0.646 0.7632 257.1097 396.3633)">
			<stop  offset="0" style="stop-color:#110B79"/>
			<stop  offset="0.1114" style="stop-color:#1D2287"/>
			<stop  offset="0.2732" style="stop-color:#2B4599"/>
			<stop  offset="0.4333" style="stop-color:#3764A9"/>
			<stop  offset="0.5885" style="stop-color:#417EB7"/>
			<stop  offset="0.7376" style="stop-color:#4991C1"/>
			<stop  offset="0.8778" style="stop-color:#4D9CC7"/>
			<stop  offset="1" style="stop-color:#4FA0CA"/>
		</linearGradient>
		<path fill="url(#SVGID_1_)" d="M11.588,7.563c0.084,0.104,0.16,0.205,0.234,0.304c0.074,0.096,0.143,0.188,0.207,0.275
			c0.08,0.111,0.152,0.211,0.213,0.295c0.078-0.166,0.156-0.332,0.23-0.502c0.117-0.269,0.227-0.544,0.322-0.822
			c-0.004-0.014-0.01-0.025-0.016-0.039c-0.039-0.1-0.096-0.24-0.168-0.407c-0.035-0.083-0.074-0.173-0.117-0.27
			c-0.041-0.095-0.088-0.195-0.135-0.298c-0.049-0.103-0.1-0.209-0.152-0.316c-0.025-0.054-0.053-0.108-0.08-0.161
			C12.113,5.594,12.1,5.567,12.084,5.54l-0.041-0.081c-0.057-0.108-0.115-0.213-0.172-0.318c-0.029-0.053-0.061-0.104-0.09-0.154
			c-0.031-0.05-0.061-0.1-0.09-0.149c-0.031-0.047-0.059-0.096-0.09-0.142c-0.031-0.045-0.059-0.09-0.088-0.133
			c-0.031-0.043-0.061-0.084-0.088-0.124c-0.031-0.039-0.059-0.078-0.088-0.114c-0.027-0.035-0.055-0.069-0.082-0.102
			c-0.027-0.03-0.053-0.06-0.076-0.088c-0.014-0.014-0.025-0.026-0.037-0.038c-0.473,0.473-1.006,0.959-1.504,1.475
			c0.027,0.02,0.057,0.041,0.088,0.064c0.02,0.013,0.035,0.026,0.055,0.04c0.018,0.014,0.035,0.028,0.055,0.044
			c0.037,0.03,0.08,0.061,0.119,0.096c0.162,0.135,0.346,0.302,0.533,0.491c0.047,0.047,0.096,0.096,0.143,0.146
			c0.023,0.024,0.049,0.049,0.072,0.074c0.023,0.026,0.047,0.051,0.07,0.077s0.049,0.052,0.07,0.077
			c0.023,0.026,0.049,0.053,0.072,0.079c0.047,0.053,0.094,0.105,0.141,0.16c0.049,0.053,0.092,0.107,0.139,0.16
			c0.045,0.055,0.09,0.109,0.135,0.162C11.42,7.352,11.506,7.458,11.588,7.563z"/>
		
			<linearGradient id="SVGID_2_" gradientUnits="userSpaceOnUse" x1="56.9102" y1="-452.3936" x2="68.3655" y2="-459.9743" gradientTransform="matrix(0.7632 -0.646 0.646 0.7632 257.1097 396.3633)">
			<stop  offset="0" style="stop-color:#110B79"/>
			<stop  offset="0.1114" style="stop-color:#1D2287"/>
			<stop  offset="0.2732" style="stop-color:#2B4599"/>
			<stop  offset="0.4333" style="stop-color:#3764A9"/>
			<stop  offset="0.5885" style="stop-color:#417EB7"/>
			<stop  offset="0.7376" style="stop-color:#4991C1"/>
			<stop  offset="0.8778" style="stop-color:#4D9CC7"/>
			<stop  offset="1" style="stop-color:#4FA0CA"/>
		</linearGradient>
		<path fill="url(#SVGID_2_)" d="M8.124,7.85C8.15,7.867,8.18,7.885,8.211,7.906c0.017,0.008,0.033,0.02,0.05,0.029
			c0.019,0.012,0.036,0.023,0.053,0.035c0.037,0.025,0.075,0.051,0.117,0.078c0.039,0.029,0.08,0.059,0.125,0.088
			C8.644,8.201,8.738,8.27,8.835,8.348c0.051,0.035,0.1,0.076,0.151,0.115C9.037,8.502,9.088,8.547,9.141,8.59
			c0.104,0.084,0.209,0.176,0.316,0.27C9.51,8.906,9.563,8.955,9.615,9.002C9.67,9.051,9.723,9.1,9.775,9.15
			c0.105,0.098,0.211,0.197,0.311,0.297c0.025,0.025,0.051,0.049,0.076,0.074c0.023,0.025,0.049,0.051,0.074,0.074
			c0.051,0.049,0.098,0.1,0.145,0.146c0.094,0.098,0.184,0.191,0.271,0.283c0.084,0.09,0.164,0.176,0.236,0.256
			c0.059,0.064,0.111,0.125,0.16,0.18c0.041-0.061,0.084-0.121,0.123-0.184c0.24-0.354,0.475-0.73,0.693-1.123
			c0.029-0.053,0.061-0.109,0.09-0.164c-0.002-0.006-0.008-0.018-0.014-0.031c-0.016-0.027-0.037-0.07-0.064-0.123
			c-0.057-0.107-0.139-0.26-0.238-0.443c-0.053-0.092-0.109-0.189-0.168-0.291c-0.061-0.104-0.125-0.213-0.191-0.324
			c-0.068-0.113-0.141-0.227-0.213-0.342c-0.037-0.059-0.076-0.117-0.111-0.174c-0.039-0.059-0.078-0.117-0.117-0.174
			c-0.039-0.059-0.078-0.117-0.117-0.174C10.699,6.887,10.68,6.86,10.66,6.831c-0.02-0.027-0.039-0.057-0.061-0.084
			c-0.02-0.027-0.039-0.056-0.059-0.083S10.5,6.609,10.48,6.582c-0.041-0.054-0.082-0.106-0.121-0.158
			c-0.16-0.206-0.318-0.391-0.463-0.544c-0.035-0.039-0.07-0.074-0.104-0.107c-0.018-0.017-0.035-0.034-0.051-0.05
			C9.725,5.707,9.711,5.691,9.693,5.677c-0.027-0.027-0.055-0.053-0.08-0.076C8.965,6.275,8.379,7,8.071,7.82
			C8.088,7.828,8.105,7.838,8.124,7.85z"/>
		
			<linearGradient id="SVGID_3_" gradientUnits="userSpaceOnUse" x1="57.5186" y1="-451.4692" x2="68.9779" y2="-459.0526" gradientTransform="matrix(0.7632 -0.646 0.646 0.7632 257.1097 396.3633)">
			<stop  offset="0" style="stop-color:#110B79"/>
			<stop  offset="0.1114" style="stop-color:#1D2287"/>
			<stop  offset="0.2732" style="stop-color:#2B4599"/>
			<stop  offset="0.4333" style="stop-color:#3764A9"/>
			<stop  offset="0.5885" style="stop-color:#417EB7"/>
			<stop  offset="0.7376" style="stop-color:#4991C1"/>
			<stop  offset="0.8778" style="stop-color:#4D9CC7"/>
			<stop  offset="1" style="stop-color:#4FA0CA"/>
		</linearGradient>
		<path fill="url(#SVGID_3_)" d="M11.203,4.11c0.029,0.026,0.057,0.054,0.088,0.082c0.031,0.029,0.063,0.062,0.094,0.093
			c0.033,0.033,0.064,0.069,0.1,0.105c0.033,0.037,0.066,0.077,0.102,0.117c0.035,0.041,0.068,0.082,0.104,0.125
			c0.035,0.043,0.07,0.088,0.107,0.134c0.033,0.046,0.068,0.093,0.105,0.141c0.035,0.049,0.07,0.097,0.105,0.146
			c0.07,0.1,0.139,0.201,0.207,0.304l0.051,0.078c0.018,0.025,0.033,0.052,0.051,0.077c0.033,0.051,0.064,0.104,0.098,0.155
			c0.064,0.103,0.127,0.205,0.186,0.305c0.059,0.099,0.115,0.195,0.168,0.288s0.102,0.18,0.146,0.261
			c0.016,0.027,0.029,0.053,0.043,0.079c0.121-0.412,0.211-0.824,0.27-1.228c0.031-0.212,0.051-0.422,0.066-0.628
			c0.014-0.206,0.02-0.409,0.016-0.606c-0.004-0.197-0.014-0.389-0.031-0.574c-0.006-0.046-0.01-0.092-0.014-0.138
			c-0.006-0.046-0.012-0.091-0.018-0.136c-0.01-0.09-0.023-0.178-0.037-0.263c-0.027-0.171-0.059-0.333-0.098-0.486
			c-0.02-0.076-0.041-0.15-0.063-0.221c-0.021-0.071-0.047-0.14-0.07-0.206c-0.098-0.264-0.209-0.486-0.311-0.663
			c-0.102-0.177-0.191-0.311-0.252-0.401c-0.031-0.046-0.057-0.08-0.072-0.103c-0.016-0.023-0.025-0.035-0.025-0.035
			c0.631,1.123-0.107,2.114-1.154,3.165C11.178,4.088,11.191,4.099,11.203,4.11z"/>
		
			<linearGradient id="SVGID_4_" gradientUnits="userSpaceOnUse" x1="58.1768" y1="-450.4761" x2="69.6353" y2="-458.059" gradientTransform="matrix(0.7632 -0.646 0.646 0.7632 257.1097 396.3633)">
			<stop  offset="0" style="stop-color:#110B79"/>
			<stop  offset="0.1114" style="stop-color:#1D2287"/>
			<stop  offset="0.2732" style="stop-color:#2B4599"/>
			<stop  offset="0.4333" style="stop-color:#3764A9"/>
			<stop  offset="0.5885" style="stop-color:#417EB7"/>
			<stop  offset="0.7376" style="stop-color:#4991C1"/>
			<stop  offset="0.8778" style="stop-color:#4D9CC7"/>
			<stop  offset="1" style="stop-color:#4FA0CA"/>
		</linearGradient>
		<path fill="url(#SVGID_4_)" d="M12.428,1.039c0.068,0.085,0.172,0.21,0.291,0.38c0.117,0.169,0.252,0.383,0.377,0.644
			c0.029,0.067,0.061,0.135,0.09,0.207c0.029,0.071,0.059,0.146,0.086,0.222c0.055,0.154,0.104,0.319,0.146,0.492
			c0.023,0.086,0.043,0.175,0.064,0.265c0.008,0.045,0.02,0.09,0.029,0.136c0.008,0.047,0.018,0.094,0.027,0.142
			c0.035,0.189,0.064,0.387,0.088,0.593c0.021,0.203,0.035,0.416,0.041,0.632c0.006,0.216,0.002,0.438-0.008,0.663
			c-0.025,0.444-0.082,0.901-0.172,1.359c0.033-0.02,0.068-0.041,0.105-0.062c0.068-0.039,0.143-0.08,0.219-0.121
			c0.037-0.02,0.076-0.04,0.117-0.06c0.039-0.021,0.078-0.041,0.119-0.061c0.08-0.04,0.166-0.078,0.248-0.115
			c0.045-0.019,0.086-0.037,0.129-0.054c0.043-0.017,0.084-0.034,0.127-0.05c0.043-0.016,0.084-0.031,0.127-0.045
			c0.02-0.008,0.041-0.014,0.063-0.022c0.021-0.006,0.041-0.012,0.063-0.019c0.02-0.007,0.039-0.014,0.061-0.02
			c0.021-0.006,0.041-0.012,0.061-0.017c0.02-0.006,0.039-0.011,0.061-0.016c0.02-0.005,0.039-0.009,0.059-0.014
			c0.037-0.009,0.076-0.017,0.113-0.023c0.035-0.007,0.07-0.013,0.104-0.017c0.02-0.003,0.035-0.005,0.053-0.008
			c0.014-0.001,0.031-0.003,0.047-0.003c0.002-0.001,0.006-0.001,0.008-0.001c-0.484-3.012-3.051-5.134-3.051-5.134
			s0.01,0.011,0.027,0.033C12.367,0.965,12.393,0.996,12.428,1.039z"/>
		
			<linearGradient id="SVGID_5_" gradientUnits="userSpaceOnUse" x1="59.1064" y1="-449.0806" x2="70.5594" y2="-456.6597" gradientTransform="matrix(0.7632 -0.646 0.646 0.7632 257.1097 396.3633)">
			<stop  offset="0" style="stop-color:#110B79"/>
			<stop  offset="0.1114" style="stop-color:#1D2287"/>
			<stop  offset="0.2732" style="stop-color:#2B4599"/>
			<stop  offset="0.4333" style="stop-color:#3764A9"/>
			<stop  offset="0.5885" style="stop-color:#417EB7"/>
			<stop  offset="0.7376" style="stop-color:#4991C1"/>
			<stop  offset="0.8778" style="stop-color:#4D9CC7"/>
			<stop  offset="1" style="stop-color:#4FA0CA"/>
		</linearGradient>
		<path fill="url(#SVGID_5_)" d="M15.367,6.088c-0.016,0.002-0.031,0.006-0.045,0.009c-0.016,0.004-0.033,0.009-0.049,0.013
			c-0.033,0.008-0.066,0.018-0.102,0.029c-0.033,0.011-0.068,0.022-0.104,0.036c-0.02,0.006-0.037,0.014-0.055,0.021
			c-0.02,0.007-0.037,0.015-0.057,0.022c-0.02,0.007-0.037,0.016-0.057,0.023c-0.02,0.008-0.037,0.018-0.059,0.026
			c-0.018,0.008-0.037,0.017-0.057,0.026c-0.02,0.009-0.039,0.019-0.059,0.028c-0.039,0.019-0.076,0.04-0.115,0.059
			c-0.039,0.02-0.078,0.042-0.117,0.063s-0.078,0.044-0.115,0.066c-0.078,0.046-0.154,0.093-0.229,0.141
			c-0.035,0.023-0.072,0.047-0.107,0.072c-0.037,0.023-0.072,0.047-0.107,0.072c-0.066,0.047-0.133,0.096-0.195,0.141
			c-0.061,0.045-0.119,0.09-0.17,0.131c-0.055,0.041-0.102,0.08-0.145,0.113c-0.01,0.012-0.023,0.02-0.033,0.029
			c-0.08,0.326-0.172,0.65-0.277,0.97c-0.029,0.09-0.061,0.178-0.09,0.266c0.355-0.076,0.811-0.158,1.27-0.209
			c0.25-0.025,0.504-0.045,0.74-0.047c0.102-0.002,0.199,0,0.295,0.002c0.148-0.736,0.148-1.441,0.047-2.105
			C15.373,6.087,15.369,6.087,15.367,6.088z"/>
		
			<linearGradient id="SVGID_6_" gradientUnits="userSpaceOnUse" x1="56.7227" y1="-452.6743" x2="68.1815" y2="-460.2574" gradientTransform="matrix(0.7632 -0.646 0.646 0.7632 257.1097 396.3633)">
			<stop  offset="0" style="stop-color:#110B79"/>
			<stop  offset="0.1114" style="stop-color:#1D2287"/>
			<stop  offset="0.2732" style="stop-color:#2B4599"/>
			<stop  offset="0.4333" style="stop-color:#3764A9"/>
			<stop  offset="0.5885" style="stop-color:#417EB7"/>
			<stop  offset="0.7376" style="stop-color:#4991C1"/>
			<stop  offset="0.8778" style="stop-color:#4D9CC7"/>
			<stop  offset="1" style="stop-color:#4FA0CA"/>
		</linearGradient>
		<path fill="url(#SVGID_6_)" d="M9.752,12.137c0.297-0.342,0.613-0.734,0.934-1.168c-0.061-0.094-0.137-0.211-0.229-0.348
			c-0.059-0.086-0.125-0.182-0.193-0.281c-0.07-0.098-0.145-0.203-0.223-0.309c-0.039-0.055-0.078-0.109-0.119-0.164
			c-0.02-0.025-0.041-0.055-0.061-0.082C9.84,9.758,9.818,9.73,9.797,9.703c-0.084-0.111-0.17-0.223-0.26-0.332
			C9.492,9.314,9.449,9.26,9.404,9.205c-0.045-0.053-0.09-0.107-0.135-0.16C9.178,8.939,9.088,8.836,8.998,8.738
			C8.953,8.689,8.91,8.641,8.865,8.594C8.822,8.547,8.779,8.502,8.736,8.459C8.652,8.371,8.568,8.291,8.492,8.217
			C8.453,8.18,8.416,8.145,8.38,8.111C8.344,8.08,8.31,8.049,8.277,8.02C8.261,8.004,8.246,7.992,8.231,7.979
			c-0.015-0.014-0.03-0.027-0.045-0.039C8.158,7.914,8.131,7.893,8.108,7.873c-0.016-0.014-0.03-0.025-0.043-0.035
			c-0.278,0.75-0.323,1.576,0.032,2.51c0.636,1.389,0.714,2.346,0.694,2.83C9.055,12.914,9.387,12.563,9.752,12.137z"/>
		
			<linearGradient id="SVGID_7_" gradientUnits="userSpaceOnUse" x1="59.1455" y1="-450.3936" x2="68.7125" y2="-456.7247" gradientTransform="matrix(0.7632 -0.646 0.646 0.7632 257.1097 396.3633)">
			<stop  offset="0" style="stop-color:#110B79"/>
			<stop  offset="0.1114" style="stop-color:#1D2287"/>
			<stop  offset="0.2732" style="stop-color:#2B4599"/>
			<stop  offset="0.4333" style="stop-color:#3764A9"/>
			<stop  offset="0.5885" style="stop-color:#417EB7"/>
			<stop  offset="0.7376" style="stop-color:#4991C1"/>
			<stop  offset="0.8778" style="stop-color:#4D9CC7"/>
			<stop  offset="1" style="stop-color:#4FA0CA"/>
		</linearGradient>
		<path fill="url(#SVGID_7_)" d="M13.969,11.178c-0.018-0.004-0.035-0.008-0.053-0.014c-0.018-0.004-0.035-0.008-0.055-0.012
			c-0.037-0.008-0.076-0.018-0.113-0.023c-0.08-0.014-0.164-0.027-0.25-0.037c-0.043-0.004-0.088-0.01-0.133-0.012
			c-0.045-0.004-0.088-0.01-0.135-0.01c-0.023,0-0.045-0.002-0.068-0.002s-0.047-0.002-0.07-0.002c-0.045-0.002-0.092,0-0.137,0
			c-0.047,0-0.094,0.004-0.139,0.004c-0.047,0-0.092,0.004-0.139,0.008c-0.09,0.008-0.18,0.014-0.264,0.025
			c-0.086,0.01-0.182,0.012-0.258-0.008c-0.074-0.018-0.1-0.006-0.236-0.08c-0.057-0.033-0.197-0.072-0.262-0.055
			c-0.547,0.428-1.221,0.672-1.533,1.117c0.252-0.1,1.141,0.492,1.385,0.451c0.857-0.146,1.779-0.189,2.549-1.326
			C14.029,11.195,14,11.186,13.969,11.178z"/>
		
			<linearGradient id="SVGID_8_" gradientUnits="userSpaceOnUse" x1="59.0068" y1="-449.2178" x2="70.4699" y2="-456.8036" gradientTransform="matrix(0.7632 -0.646 0.646 0.7632 257.1097 396.3633)">
			<stop  offset="0" style="stop-color:#110B79"/>
			<stop  offset="0.1114" style="stop-color:#1D2287"/>
			<stop  offset="0.2732" style="stop-color:#2B4599"/>
			<stop  offset="0.4333" style="stop-color:#3764A9"/>
			<stop  offset="0.5885" style="stop-color:#417EB7"/>
			<stop  offset="0.7376" style="stop-color:#4991C1"/>
			<stop  offset="0.8778" style="stop-color:#4D9CC7"/>
			<stop  offset="1" style="stop-color:#4FA0CA"/>
		</linearGradient>
		<path fill="url(#SVGID_8_)" d="M15.045,8.326c-0.23,0.029-0.473,0.074-0.715,0.129c-0.482,0.107-0.955,0.25-1.305,0.369
			c-0.059,0.02-0.113,0.039-0.162,0.057c-0.086,0.215-0.176,0.43-0.268,0.641c-0.193,0.432-0.402,0.848-0.617,1.244
			c0,0.002,0,0.002-0.002,0.002c0.053-0.002,0.105-0.002,0.16-0.004c0.084,0.002,0.174,0.002,0.264,0.006
			c0.092,0.004,0.186,0.012,0.281,0.02c0.049,0.004,0.096,0.01,0.145,0.014c0.049,0.008,0.096,0.014,0.145,0.02
			c0.049,0.008,0.096,0.016,0.143,0.025c0.025,0.002,0.049,0.008,0.072,0.01c0.023,0.006,0.047,0.012,0.07,0.016
			c0.047,0.01,0.094,0.021,0.139,0.033c0.045,0.008,0.09,0.021,0.133,0.033c0.088,0.025,0.17,0.053,0.25,0.08
			c0.037,0.014,0.076,0.029,0.111,0.043c0.018,0.008,0.037,0.014,0.055,0.021s0.033,0.014,0.051,0.021
			c0.033,0.016,0.066,0.031,0.1,0.045c0.189-0.291,0.371-0.65,0.537-1.098c0.332-0.598,0.549-1.184,0.676-1.752
			C15.223,8.307,15.135,8.316,15.045,8.326z"/>
	</g>
	<g>
		<path fill="#FFFFFF" d="M8.455,13.223c0,0,1.471-0.854,1.67-1.145c0.225-0.326,1.832-1.164,2.254-1.957
			c0.34-0.736,0.271-1.078,0.32-1.896c0.037-0.599,0.09-1.289-0.008-1.982c-0.057-0.398-0.191-0.784-0.332-1.194
			c-0.105-0.304-0.262-0.588-0.434-0.873C10.9,2.482,8.708,1.069,7.207,0.537c0.398,0.35,0.642,0.819,0.628,1.416
			C7.823,2.467,7.594,3.089,7.403,3.65C7.09,4.298,6.804,5.036,6.565,5.539c0,0-0.189,0.401-0.366,0.88
			C5.91,7.206,5.603,8.424,5.97,9.496c0.27,0.785,1.353,1.756,1.817,2.434C8.341,12.738,8.451,13.084,8.455,13.223z"/>
		
			<linearGradient id="SVGID_9_" gradientUnits="userSpaceOnUse" x1="-137.7407" y1="-227.6982" x2="-126.2841" y2="-235.2798" gradientTransform="matrix(0.4692 -0.8831 0.8831 0.4692 274.697 -0.3754)">
			<stop  offset="0" style="stop-color:#FF0000"/>
			<stop  offset="0.0677" style="stop-color:#FF1F00"/>
			<stop  offset="0.213" style="stop-color:#FF5900"/>
			<stop  offset="0.3581" style="stop-color:#FF8C00"/>
			<stop  offset="0.4996" style="stop-color:#FFB500"/>
			<stop  offset="0.6368" style="stop-color:#FFD500"/>
			<stop  offset="0.7684" style="stop-color:#FFEC00"/>
			<stop  offset="0.8921" style="stop-color:#FFFA00"/>
			<stop  offset="1" style="stop-color:#FFFF00"/>
		</linearGradient>
		<path fill="url(#SVGID_9_)" d="M8.971,6.969c0.113,0.066,0.225,0.133,0.33,0.197c0.104,0.063,0.203,0.123,0.293,0.18
			C9.709,7.42,9.813,7.485,9.9,7.542C9.914,7.358,9.924,7.174,9.93,6.991c0.008-0.296,0.006-0.591-0.006-0.885
			c-0.01-0.009-0.02-0.02-0.029-0.031C9.82,5.998,9.717,5.889,9.588,5.76C9.523,5.695,9.453,5.625,9.379,5.552
			C9.305,5.48,9.225,5.403,9.143,5.325s-0.17-0.158-0.258-0.238c-0.045-0.04-0.09-0.081-0.135-0.121
			c-0.023-0.02-0.047-0.04-0.07-0.06L8.612,4.848c-0.093-0.079-0.187-0.156-0.28-0.232C8.286,4.579,8.239,4.543,8.193,4.507
			C8.146,4.472,8.1,4.436,8.055,4.402C8.008,4.369,7.963,4.335,7.919,4.304C7.874,4.273,7.83,4.242,7.787,4.213
			C7.743,4.185,7.7,4.157,7.659,4.131C7.617,4.105,7.577,4.08,7.536,4.058C7.497,4.035,7.459,4.014,7.423,3.995
			C7.385,3.976,7.351,3.957,7.317,3.94C7.301,3.933,7.285,3.926,7.269,3.919C7.007,4.533,6.691,5.183,6.421,5.846
			c0.033,0.008,0.068,0.018,0.106,0.027C6.548,5.879,6.569,5.884,6.592,5.89C6.614,5.896,6.636,5.903,6.659,5.91
			c0.047,0.014,0.095,0.028,0.146,0.044c0.202,0.066,0.434,0.154,0.679,0.26C7.545,6.24,7.607,6.267,7.669,6.295
			C7.7,6.31,7.731,6.324,7.762,6.338c0.032,0.014,0.063,0.029,0.095,0.045C7.889,6.397,7.92,6.413,7.952,6.428
			c0.031,0.015,0.063,0.031,0.094,0.047c0.064,0.031,0.127,0.063,0.19,0.096C8.3,6.603,8.363,6.636,8.425,6.668
			C8.487,6.703,8.55,6.735,8.611,6.77C8.734,6.836,8.853,6.905,8.971,6.969z"/>
		
			<linearGradient id="SVGID_10_" gradientUnits="userSpaceOnUse" x1="-138.0615" y1="-228.1792" x2="-126.6022" y2="-235.7626" gradientTransform="matrix(0.4692 -0.8831 0.8831 0.4692 274.697 -0.3754)">
			<stop  offset="0" style="stop-color:#FF0000"/>
			<stop  offset="0.0677" style="stop-color:#FF1F00"/>
			<stop  offset="0.213" style="stop-color:#FF5900"/>
			<stop  offset="0.3581" style="stop-color:#FF8C00"/>
			<stop  offset="0.4996" style="stop-color:#FFB500"/>
			<stop  offset="0.6368" style="stop-color:#FFD500"/>
			<stop  offset="0.7684" style="stop-color:#FFEC00"/>
			<stop  offset="0.8921" style="stop-color:#FFFA00"/>
			<stop  offset="1" style="stop-color:#FFFF00"/>
		</linearGradient>
		<path fill="url(#SVGID_10_)" d="M5.859,8.521c0.031,0.006,0.065,0.012,0.102,0.02c0.019,0.004,0.038,0.006,0.058,0.01
			s0.041,0.01,0.062,0.014c0.042,0.01,0.088,0.018,0.136,0.029c0.048,0.01,0.098,0.023,0.15,0.035
			c0.104,0.027,0.218,0.055,0.337,0.09c0.06,0.016,0.12,0.035,0.183,0.055c0.062,0.018,0.125,0.037,0.189,0.059
			c0.128,0.039,0.261,0.086,0.395,0.133c0.066,0.023,0.133,0.049,0.201,0.074C7.739,9.064,7.807,9.09,7.875,9.117
			c0.134,0.051,0.269,0.105,0.398,0.16c0.033,0.014,0.066,0.027,0.099,0.039c0.032,0.016,0.063,0.029,0.097,0.043
			c0.063,0.027,0.127,0.057,0.188,0.082C8.781,9.496,8.9,9.553,9.012,9.605c0.113,0.051,0.221,0.102,0.316,0.15
			c0.078,0.037,0.15,0.074,0.215,0.107c0.018-0.072,0.033-0.143,0.049-0.217c0.09-0.42,0.168-0.854,0.225-1.299
			c0.01-0.063,0.018-0.125,0.025-0.189C9.836,8.154,9.826,8.146,9.814,8.137c-0.023-0.021-0.061-0.053-0.105-0.09
			c-0.092-0.08-0.225-0.191-0.385-0.324c-0.082-0.064-0.17-0.135-0.264-0.209C8.965,7.44,8.867,7.362,8.761,7.284
			C8.657,7.206,8.548,7.125,8.437,7.045C8.38,7.006,8.325,6.967,8.269,6.926c-0.058-0.039-0.114-0.08-0.172-0.119
			S7.982,6.729,7.923,6.691C7.894,6.673,7.865,6.653,7.836,6.634C7.807,6.616,7.778,6.598,7.749,6.579
			C7.72,6.561,7.691,6.542,7.663,6.525C7.633,6.506,7.604,6.488,7.576,6.471C7.519,6.435,7.461,6.403,7.405,6.369
			C7.179,6.237,6.963,6.123,6.773,6.035C6.727,6.012,6.68,5.993,6.636,5.974c-0.022-0.009-0.043-0.02-0.064-0.028
			C6.551,5.938,6.531,5.93,6.511,5.921C6.474,5.907,6.439,5.893,6.407,5.88C6.055,6.747,5.782,7.639,5.799,8.514
			C5.818,8.514,5.837,8.518,5.859,8.521z"/>
		
			<linearGradient id="SVGID_11_" gradientUnits="userSpaceOnUse" x1="-137.4502" y1="-227.2583" x2="-125.993" y2="-234.8403" gradientTransform="matrix(0.4692 -0.8831 0.8831 0.4692 274.697 -0.3754)">
			<stop  offset="0" style="stop-color:#FF0000"/>
			<stop  offset="0.0677" style="stop-color:#FF1F00"/>
			<stop  offset="0.213" style="stop-color:#FF5900"/>
			<stop  offset="0.3581" style="stop-color:#FF8C00"/>
			<stop  offset="0.4996" style="stop-color:#FFB500"/>
			<stop  offset="0.6368" style="stop-color:#FFD500"/>
			<stop  offset="0.7684" style="stop-color:#FFEC00"/>
			<stop  offset="0.8921" style="stop-color:#FFFA00"/>
			<stop  offset="1" style="stop-color:#FFFF00"/>
		</linearGradient>
		<path fill="url(#SVGID_11_)" d="M7.332,3.907C7.367,3.92,7.404,3.935,7.443,3.95c0.039,0.016,0.079,0.034,0.122,0.052
			c0.043,0.019,0.086,0.04,0.131,0.062c0.045,0.022,0.09,0.046,0.138,0.071c0.047,0.024,0.094,0.05,0.143,0.077
			c0.048,0.028,0.098,0.057,0.148,0.086c0.05,0.03,0.1,0.06,0.15,0.091c0.05,0.032,0.102,0.063,0.152,0.096
			C8.529,4.552,8.631,4.62,8.734,4.69L8.81,4.743c0.025,0.018,0.049,0.036,0.074,0.054c0.051,0.035,0.1,0.072,0.149,0.107
			c0.098,0.072,0.193,0.144,0.285,0.213c0.092,0.071,0.18,0.139,0.264,0.206c0.082,0.065,0.16,0.129,0.232,0.188
			C9.838,5.53,9.861,5.549,9.883,5.568c-0.041-0.426-0.109-0.843-0.205-1.24C9.629,4.12,9.57,3.917,9.506,3.719
			C9.443,3.523,9.371,3.334,9.297,3.152C9.221,2.97,9.139,2.795,9.055,2.63C9.033,2.588,9.012,2.547,8.99,2.507
			c-0.021-0.04-0.045-0.081-0.067-0.121C8.88,2.307,8.835,2.23,8.791,2.156C8.703,2.007,8.613,1.868,8.519,1.741
			c-0.045-0.064-0.093-0.125-0.14-0.182C8.332,1.5,8.286,1.445,8.239,1.394C8.05,1.185,7.864,1.02,7.704,0.893
			C7.545,0.766,7.412,0.675,7.32,0.614C7.275,0.583,7.24,0.561,7.216,0.545C7.192,0.53,7.179,0.522,7.179,0.522
			C8.181,1.331,7.864,2.525,7.282,3.89C7.298,3.896,7.314,3.9,7.332,3.907z"/>
		
			<linearGradient id="SVGID_12_" gradientUnits="userSpaceOnUse" x1="-136.7939" y1="-226.2642" x2="-125.3354" y2="-233.847" gradientTransform="matrix(0.4692 -0.8831 0.8831 0.4692 274.697 -0.3754)">
			<stop  offset="0" style="stop-color:#FF0000"/>
			<stop  offset="0.0677" style="stop-color:#FF1F00"/>
			<stop  offset="0.213" style="stop-color:#FF5900"/>
			<stop  offset="0.3581" style="stop-color:#FF8C00"/>
			<stop  offset="0.4996" style="stop-color:#FFB500"/>
			<stop  offset="0.6368" style="stop-color:#FFD500"/>
			<stop  offset="0.7684" style="stop-color:#FFEC00"/>
			<stop  offset="0.8921" style="stop-color:#FFFA00"/>
			<stop  offset="1" style="stop-color:#FFFF00"/>
		</linearGradient>
		<path fill="url(#SVGID_12_)" d="M7.329,0.601c0.097,0.053,0.238,0.131,0.41,0.244c0.172,0.114,0.376,0.263,0.589,0.459
			c0.054,0.049,0.107,0.101,0.161,0.157C8.543,1.517,8.597,1.575,8.65,1.637c0.107,0.122,0.215,0.257,0.321,0.401
			C9.023,2.11,9.074,2.185,9.127,2.261C9.152,2.3,9.18,2.339,9.205,2.377c0.025,0.041,0.053,0.08,0.078,0.12
			c0.104,0.163,0.203,0.336,0.301,0.518C9.68,3.197,9.771,3.389,9.857,3.587s0.166,0.405,0.238,0.619
			c0.143,0.42,0.258,0.866,0.344,1.325c0.025-0.032,0.049-0.063,0.076-0.097c0.049-0.063,0.102-0.127,0.158-0.193
			c0.027-0.033,0.057-0.066,0.086-0.1c0.029-0.033,0.059-0.066,0.09-0.1c0.061-0.067,0.123-0.134,0.188-0.2
			c0.033-0.032,0.066-0.064,0.1-0.097c0.031-0.032,0.063-0.064,0.098-0.094c0.035-0.03,0.068-0.061,0.102-0.089
			c0.016-0.015,0.033-0.029,0.049-0.044c0.018-0.013,0.035-0.027,0.053-0.041c0.016-0.014,0.031-0.027,0.049-0.041
			c0.016-0.012,0.033-0.025,0.049-0.037c0.018-0.012,0.035-0.025,0.051-0.037c0.018-0.013,0.033-0.023,0.049-0.035
			c0.033-0.023,0.064-0.044,0.096-0.064c0.033-0.02,0.063-0.038,0.094-0.055c0.014-0.009,0.027-0.017,0.043-0.025
			c0.016-0.008,0.027-0.015,0.043-0.022c0.002-0.001,0.006-0.002,0.008-0.004C10.35,1.541,7.179,0.522,7.179,0.522
			s0.013,0.007,0.039,0.02C7.243,0.555,7.28,0.574,7.329,0.601z"/>
		
			<linearGradient id="SVGID_13_" gradientUnits="userSpaceOnUse" x1="-135.8657" y1="-224.8687" x2="-124.4118" y2="-232.4484" gradientTransform="matrix(0.4692 -0.8831 0.8831 0.4692 274.697 -0.3754)">
			<stop  offset="0" style="stop-color:#FF0000"/>
			<stop  offset="0.0677" style="stop-color:#FF1F00"/>
			<stop  offset="0.213" style="stop-color:#FF5900"/>
			<stop  offset="0.3581" style="stop-color:#FF8C00"/>
			<stop  offset="0.4996" style="stop-color:#FFB500"/>
			<stop  offset="0.6368" style="stop-color:#FFD500"/>
			<stop  offset="0.7684" style="stop-color:#FFEC00"/>
			<stop  offset="0.8921" style="stop-color:#FFFA00"/>
			<stop  offset="1" style="stop-color:#FFFF00"/>
		</linearGradient>
		<path fill="url(#SVGID_13_)" d="M11.932,4.199c-0.014,0.009-0.025,0.018-0.039,0.026c-0.014,0.009-0.025,0.02-0.039,0.03
			c-0.027,0.02-0.057,0.041-0.084,0.064c-0.027,0.023-0.055,0.047-0.084,0.072c-0.014,0.014-0.029,0.026-0.043,0.04
			c-0.016,0.013-0.029,0.027-0.045,0.042C11.584,4.486,11.57,4.5,11.555,4.515c-0.014,0.015-0.027,0.03-0.043,0.045
			s-0.031,0.03-0.045,0.046c-0.014,0.016-0.029,0.032-0.043,0.047c-0.029,0.031-0.057,0.065-0.086,0.098
			c-0.029,0.034-0.057,0.068-0.086,0.103c-0.027,0.034-0.055,0.068-0.082,0.104c-0.055,0.071-0.107,0.142-0.158,0.214
			c-0.025,0.036-0.051,0.072-0.074,0.108c-0.025,0.035-0.049,0.071-0.072,0.105c-0.045,0.07-0.09,0.139-0.129,0.204
			c-0.039,0.065-0.078,0.127-0.111,0.186s-0.063,0.112-0.09,0.158c-0.008,0.014-0.014,0.027-0.021,0.041
			c0.049,0.331,0.082,0.667,0.104,1.002c0.006,0.094,0.01,0.189,0.014,0.281c0.303-0.203,0.693-0.449,1.104-0.665
			c0.223-0.119,0.449-0.229,0.668-0.32c0.094-0.039,0.186-0.074,0.275-0.105c-0.133-0.74-0.396-1.396-0.738-1.974
			C11.938,4.195,11.934,4.197,11.932,4.199z"/>
		
			<linearGradient id="SVGID_14_" gradientUnits="userSpaceOnUse" x1="-138.2476" y1="-228.4629" x2="-126.7905" y2="-236.0448" gradientTransform="matrix(0.4692 -0.8831 0.8831 0.4692 274.697 -0.3754)">
			<stop  offset="0" style="stop-color:#FF0000"/>
			<stop  offset="0.0677" style="stop-color:#FF1F00"/>
			<stop  offset="0.213" style="stop-color:#FF5900"/>
			<stop  offset="0.3581" style="stop-color:#FF8C00"/>
			<stop  offset="0.4996" style="stop-color:#FFB500"/>
			<stop  offset="0.6368" style="stop-color:#FFD500"/>
			<stop  offset="0.7684" style="stop-color:#FFEC00"/>
			<stop  offset="0.8921" style="stop-color:#FFFA00"/>
			<stop  offset="1" style="stop-color:#FFFF00"/>
		</linearGradient>
		<path fill="url(#SVGID_14_)" d="M8.961,11.9c0.148-0.43,0.299-0.912,0.434-1.432c-0.092-0.066-0.207-0.146-0.34-0.238
			c-0.088-0.059-0.184-0.123-0.286-0.189S8.56,9.906,8.449,9.836C8.392,9.799,8.335,9.766,8.276,9.73
			c-0.029-0.02-0.059-0.037-0.087-0.055C8.16,9.658,8.129,9.641,8.1,9.621C7.981,9.551,7.858,9.48,7.735,9.41
			C7.673,9.375,7.611,9.342,7.549,9.309C7.488,9.275,7.426,9.24,7.365,9.207C7.241,9.143,7.119,9.082,7,9.021
			C6.94,8.992,6.881,8.965,6.823,8.938c-0.058-0.025-0.115-0.053-0.17-0.076C6.542,8.811,6.436,8.766,6.336,8.727
			C6.287,8.705,6.24,8.688,6.194,8.67S6.105,8.637,6.065,8.623c-0.021-0.006-0.04-0.016-0.06-0.021
			c-0.02-0.008-0.037-0.014-0.055-0.02C5.915,8.568,5.882,8.561,5.852,8.549C5.833,8.543,5.816,8.537,5.799,8.533
			c0.02,0.799,0.286,1.584,0.96,2.318c1.105,1.055,1.533,1.914,1.695,2.371C8.601,12.879,8.781,12.43,8.961,11.9z"/>
		
			<linearGradient id="SVGID_15_" gradientUnits="userSpaceOnUse" x1="-136.2446" y1="-225.4355" x2="-124.7842" y2="-233.0197" gradientTransform="matrix(0.4692 -0.8831 0.8831 0.4692 274.697 -0.3754)">
			<stop  offset="0" style="stop-color:#FF0000"/>
			<stop  offset="0.0677" style="stop-color:#FF1F00"/>
			<stop  offset="0.213" style="stop-color:#FF5900"/>
			<stop  offset="0.3581" style="stop-color:#FF8C00"/>
			<stop  offset="0.4996" style="stop-color:#FFB500"/>
			<stop  offset="0.6368" style="stop-color:#FFD500"/>
			<stop  offset="0.7684" style="stop-color:#FFEC00"/>
			<stop  offset="0.8921" style="stop-color:#FFFA00"/>
			<stop  offset="1" style="stop-color:#FFFF00"/>
		</linearGradient>
		<path fill="url(#SVGID_15_)" d="M12.52,9.445c-0.016,0.002-0.033,0.004-0.053,0.008c-0.018,0-0.037,0.004-0.055,0.008
			c-0.037,0.006-0.076,0.012-0.115,0.02c-0.078,0.016-0.16,0.037-0.244,0.061c-0.043,0.012-0.084,0.021-0.127,0.035
			s-0.088,0.027-0.129,0.041c-0.023,0.01-0.043,0.016-0.066,0.025c-0.021,0.008-0.043,0.016-0.064,0.023
			c-0.043,0.016-0.084,0.033-0.129,0.051c-0.041,0.018-0.084,0.037-0.127,0.055c-0.041,0.02-0.082,0.039-0.123,0.059
			c-0.082,0.041-0.162,0.082-0.238,0.123c-0.074,0.039-0.148,0.082-0.215,0.123s-0.131,0.08-0.188,0.119
			c-0.078,0.051-0.143,0.096-0.197,0.135c-0.096,0.639-0.215,1.234-0.34,1.764c0.195-0.186,0.418-0.352,0.631-0.482
			c0.74-0.453,1.58-0.836,1.873-2.178C12.584,9.438,12.553,9.439,12.52,9.445z"/>
		
			<linearGradient id="SVGID_16_" gradientUnits="userSpaceOnUse" x1="-135.957" y1="-225.0088" x2="-124.5058" y2="-232.5868" gradientTransform="matrix(0.4692 -0.8831 0.8831 0.4692 274.697 -0.3754)">
			<stop  offset="0" style="stop-color:#FF0000"/>
			<stop  offset="0.0677" style="stop-color:#FF1F00"/>
			<stop  offset="0.213" style="stop-color:#FF5900"/>
			<stop  offset="0.3581" style="stop-color:#FF8C00"/>
			<stop  offset="0.4996" style="stop-color:#FFB500"/>
			<stop  offset="0.6368" style="stop-color:#FFD500"/>
			<stop  offset="0.7684" style="stop-color:#FFEC00"/>
			<stop  offset="0.8921" style="stop-color:#FFFA00"/>
			<stop  offset="1" style="stop-color:#FFFF00"/>
		</linearGradient>
		<path fill="url(#SVGID_16_)" d="M12.463,6.399c-0.203,0.111-0.412,0.243-0.615,0.38c-0.41,0.279-0.795,0.59-1.076,0.83
			c-0.047,0.039-0.09,0.076-0.129,0.111c0.002,0.232-0.002,0.462-0.012,0.691c-0.018,0.475-0.057,0.939-0.109,1.387
			c0,0.002-0.002,0.002-0.002,0.002c0.047-0.02,0.098-0.039,0.146-0.061c0.078-0.033,0.162-0.064,0.248-0.094
			c0.088-0.029,0.176-0.061,0.268-0.086c0.047-0.014,0.094-0.027,0.141-0.039c0.047-0.014,0.092-0.025,0.141-0.035
			c0.047-0.014,0.094-0.023,0.143-0.033c0.023-0.004,0.047-0.01,0.07-0.014s0.047-0.008,0.072-0.014
			c0.047-0.008,0.092-0.016,0.139-0.021s0.092-0.012,0.137-0.018c0.09-0.01,0.178-0.014,0.26-0.018
			c0.043-0.004,0.084-0.002,0.121-0.004c0.02,0,0.039,0,0.057,0c0.02,0.002,0.037,0.002,0.057,0.004
			c0.037,0,0.074,0.004,0.109,0.006c0.068-0.342,0.104-0.744,0.094-1.221c0.084-0.677,0.07-1.302-0.023-1.876
			C12.619,6.314,12.543,6.355,12.463,6.399z"/>
	</g>
	<g>
		<path fill="#FFFFFF" d="M8.98,13.721c0,0,0.654-1.566,0.639-1.92c-0.018-0.393,0.758-2.033,0.615-2.92
			c-0.174-0.793-0.434-1.023-0.891-1.705C9.012,6.675,8.636,6.095,8.139,5.601c-0.284-0.284-0.624-0.51-0.985-0.751
			C6.888,4.671,6.591,4.538,6.282,4.416c-1.839-0.732-4.44-0.535-5.959-0.052c0.528,0.038,1.006,0.265,1.355,0.748
			c0.301,0.418,0.495,1.052,0.681,1.615c0.142,0.705,0.36,1.464,0.472,2.011c0,0,0.091,0.434,0.24,0.922
			c0.245,0.803,0.735,1.959,1.676,2.592c0.69,0.465,2.139,0.584,2.918,0.844C8.595,13.406,8.892,13.615,8.98,13.721z"/>
		
			<linearGradient id="SVGID_17_" gradientUnits="userSpaceOnUse" x1="-104.5928" y1="-194.1929" x2="-93.139" y2="-201.7726" gradientTransform="matrix(-0.1592 -0.9872 0.9872 -0.1592 185.1844 -119.8213)">
			<stop  offset="0" style="stop-color:#12491D"/>
			<stop  offset="0.0427" style="stop-color:#1D511D"/>
			<stop  offset="0.2171" style="stop-color:#48741C"/>
			<stop  offset="0.3895" style="stop-color:#729719"/>
			<stop  offset="0.5568" style="stop-color:#97B714"/>
			<stop  offset="0.7174" style="stop-color:#B4D110"/>
			<stop  offset="0.8684" style="stop-color:#C6E10D"/>
			<stop  offset="1" style="stop-color:#CCE70B"/>
		</linearGradient>
		<path fill="url(#SVGID_17_)" d="M5.612,8.428c0.132-0.016,0.26-0.031,0.381-0.045C6.116,8.371,6.23,8.359,6.336,8.35
			C6.473,8.338,6.597,8.328,6.699,8.32C6.6,8.168,6.496,8.014,6.39,7.863c-0.171-0.24-0.352-0.474-0.539-0.701
			C5.837,7.161,5.824,7.159,5.809,7.157C5.705,7.139,5.554,7.116,5.375,7.09c-0.09-0.014-0.188-0.027-0.292-0.039
			C4.979,7.038,4.871,7.026,4.757,7.012C4.644,7,4.526,6.989,4.407,6.979c-0.06-0.006-0.119-0.01-0.18-0.014
			c-0.03-0.004-0.06-0.004-0.09-0.008L4.046,6.954C3.925,6.944,3.804,6.94,3.684,6.936c-0.06-0.002-0.119-0.002-0.177-0.004
			c-0.059,0-0.116,0-0.173,0C3.276,6.934,3.22,6.936,3.166,6.938C3.111,6.94,3.057,6.942,3.005,6.944
			C2.953,6.948,2.902,6.952,2.854,6.956c-0.049,0.006-0.097,0.01-0.142,0.016C2.667,6.977,2.624,6.983,2.583,6.989
			C2.542,6.997,2.503,7.002,2.467,7.01C2.449,7.014,2.432,7.018,2.416,7.022C2.577,7.67,2.718,8.379,2.902,9.07
			c0.031-0.014,0.065-0.027,0.102-0.043c0.02-0.008,0.04-0.016,0.061-0.025c0.021-0.01,0.044-0.016,0.066-0.025
			c0.045-0.018,0.093-0.035,0.144-0.053c0.201-0.068,0.439-0.141,0.697-0.203c0.065-0.016,0.131-0.031,0.198-0.047
			C4.202,8.668,4.236,8.658,4.27,8.652c0.034-0.008,0.068-0.016,0.102-0.021C4.406,8.623,4.44,8.617,4.475,8.609
			c0.034-0.008,0.069-0.014,0.104-0.02c0.069-0.014,0.14-0.027,0.209-0.039c0.07-0.014,0.14-0.023,0.209-0.035
			c0.07-0.012,0.14-0.021,0.208-0.033C5.344,8.463,5.48,8.443,5.612,8.428z"/>
		
			<linearGradient id="SVGID_18_" gradientUnits="userSpaceOnUse" x1="-104.9146" y1="-194.6719" x2="-93.4552" y2="-202.2552" gradientTransform="matrix(-0.1592 -0.9872 0.9872 -0.1592 185.1844 -119.8213)">
			<stop  offset="0" style="stop-color:#12491D"/>
			<stop  offset="0.0427" style="stop-color:#1D511D"/>
			<stop  offset="0.2171" style="stop-color:#48741C"/>
			<stop  offset="0.3895" style="stop-color:#729719"/>
			<stop  offset="0.5568" style="stop-color:#97B714"/>
			<stop  offset="0.7174" style="stop-color:#B4D110"/>
			<stop  offset="0.8684" style="stop-color:#C6E10D"/>
			<stop  offset="1" style="stop-color:#CCE70B"/>
		</linearGradient>
		<path fill="url(#SVGID_18_)" d="M4.071,11.543c0.028-0.014,0.06-0.029,0.093-0.047c0.017-0.008,0.035-0.018,0.053-0.025
			c0.019-0.01,0.038-0.02,0.057-0.029c0.04-0.018,0.082-0.037,0.126-0.057c0.045-0.021,0.092-0.043,0.142-0.064
			c0.099-0.041,0.207-0.086,0.322-0.131c0.057-0.023,0.117-0.045,0.178-0.068s0.124-0.045,0.188-0.066
			c0.127-0.045,0.26-0.09,0.395-0.131c0.068-0.021,0.136-0.043,0.205-0.064c0.068-0.02,0.138-0.039,0.208-0.061
			c0.139-0.039,0.278-0.076,0.416-0.111c0.035-0.01,0.069-0.02,0.103-0.027c0.034-0.008,0.068-0.016,0.102-0.023
			c0.067-0.018,0.135-0.033,0.201-0.049c0.132-0.031,0.259-0.061,0.381-0.086s0.236-0.051,0.343-0.07
			c0.085-0.018,0.164-0.033,0.236-0.045c-0.03-0.066-0.061-0.133-0.092-0.201C7.544,9.797,7.342,9.404,7.12,9.014
			C7.089,8.959,7.058,8.904,7.025,8.85c-0.007,0-0.019,0-0.034-0.002c-0.032-0.002-0.08-0.006-0.139-0.01
			C6.731,8.83,6.558,8.822,6.35,8.814c-0.104-0.002-0.217-0.006-0.336-0.01c-0.12,0-0.246-0.002-0.376-0.002
			c-0.131,0-0.266,0.002-0.403,0.006C5.166,8.811,5.097,8.814,5.027,8.814C4.958,8.818,4.888,8.82,4.819,8.826
			C4.749,8.828,4.68,8.832,4.61,8.836C4.576,8.838,4.541,8.842,4.507,8.844C4.472,8.848,4.438,8.85,4.404,8.852
			C4.37,8.855,4.335,8.859,4.301,8.861C4.268,8.863,4.234,8.867,4.201,8.869C4.134,8.877,4.068,8.885,4.003,8.893
			c-0.259,0.031-0.5,0.07-0.705,0.115c-0.051,0.01-0.1,0.021-0.146,0.033C3.128,9.047,3.105,9.053,3.083,9.059
			S3.041,9.07,3.021,9.074C2.982,9.086,2.946,9.096,2.913,9.105c0.243,0.902,0.563,1.779,1.105,2.467
			C4.034,11.564,4.051,11.553,4.071,11.543z"/>
		
			<linearGradient id="SVGID_19_" gradientUnits="userSpaceOnUse" x1="-104.3047" y1="-193.75" x2="-92.8464" y2="-201.3327" gradientTransform="matrix(-0.1592 -0.9872 0.9872 -0.1592 185.1844 -119.8213)">
			<stop  offset="0" style="stop-color:#12491D"/>
			<stop  offset="0.0427" style="stop-color:#1D511D"/>
			<stop  offset="0.2171" style="stop-color:#48741C"/>
			<stop  offset="0.3895" style="stop-color:#729719"/>
			<stop  offset="0.5568" style="stop-color:#97B714"/>
			<stop  offset="0.7174" style="stop-color:#B4D110"/>
			<stop  offset="0.8684" style="stop-color:#C6E10D"/>
			<stop  offset="1" style="stop-color:#CCE70B"/>
		</linearGradient>
		<path fill="url(#SVGID_19_)" d="M2.458,6.973c0.036-0.008,0.075-0.02,0.115-0.031c0.041-0.01,0.084-0.021,0.129-0.033
			c0.045-0.01,0.093-0.018,0.141-0.029c0.049-0.01,0.1-0.018,0.152-0.027c0.053-0.008,0.106-0.016,0.162-0.023
			s0.111-0.014,0.169-0.021C3.383,6.801,3.441,6.795,3.5,6.79s0.12-0.012,0.18-0.016c0.122-0.008,0.244-0.016,0.367-0.021
			L4.14,6.749c0.031,0,0.062-0.002,0.092-0.002c0.062-0.002,0.123-0.004,0.184-0.004c0.121-0.002,0.24-0.002,0.356-0.002
			c0.115,0,0.227,0.002,0.333,0.004s0.206,0.006,0.299,0.01c0.031,0,0.061,0.002,0.09,0.004C5.204,6.444,4.898,6.153,4.582,5.894
			C4.416,5.758,4.248,5.631,4.078,5.513c-0.169-0.118-0.34-0.227-0.511-0.327c-0.17-0.099-0.34-0.189-0.508-0.27
			c-0.042-0.02-0.083-0.04-0.125-0.059C2.891,4.839,2.85,4.82,2.808,4.802C2.725,4.765,2.645,4.73,2.564,4.699
			C2.403,4.633,2.248,4.577,2.097,4.531C2.021,4.509,1.947,4.488,1.875,4.471C1.803,4.452,1.731,4.437,1.663,4.423
			C1.386,4.371,1.139,4.353,0.935,4.348C0.731,4.343,0.57,4.35,0.46,4.357C0.405,4.36,0.363,4.363,0.335,4.365
			C0.307,4.368,0.292,4.369,0.292,4.369c1.287,0.04,1.754,1.184,2.115,2.622C2.423,6.987,2.44,6.981,2.458,6.973z"/>
		
			<linearGradient id="SVGID_20_" gradientUnits="userSpaceOnUse" x1="-103.647" y1="-192.7568" x2="-92.1889" y2="-200.3394" gradientTransform="matrix(-0.1592 -0.9872 0.9872 -0.1592 185.1844 -119.8213)">
			<stop  offset="0" style="stop-color:#12491D"/>
			<stop  offset="0.0427" style="stop-color:#1D511D"/>
			<stop  offset="0.2171" style="stop-color:#48741C"/>
			<stop  offset="0.3895" style="stop-color:#729719"/>
			<stop  offset="0.5568" style="stop-color:#97B714"/>
			<stop  offset="0.7174" style="stop-color:#B4D110"/>
			<stop  offset="0.8684" style="stop-color:#C6E10D"/>
			<stop  offset="1" style="stop-color:#CCE70B"/>
		</linearGradient>
		<path fill="url(#SVGID_20_)" d="M0.459,4.341c0.109-0.016,0.269-0.04,0.475-0.053C1.14,4.274,1.392,4.27,1.681,4.299
			c0.072,0.007,0.146,0.016,0.223,0.027C1.98,4.339,2.058,4.352,2.138,4.369c0.16,0.032,0.326,0.077,0.497,0.127
			C2.721,4.522,2.807,4.55,2.895,4.58c0.043,0.015,0.088,0.03,0.132,0.046s0.089,0.032,0.135,0.048
			c0.181,0.067,0.366,0.145,0.552,0.231C3.901,4.992,4.09,5.087,4.277,5.196c0.188,0.106,0.377,0.223,0.564,0.35
			C5.209,5.793,5.57,6.079,5.916,6.393c0-0.04,0.001-0.081,0.002-0.123c0.002-0.079,0.005-0.162,0.01-0.248
			C5.93,5.979,5.932,5.935,5.936,5.891c0.003-0.044,0.006-0.089,0.011-0.135c0.008-0.09,0.018-0.181,0.029-0.272
			c0.007-0.046,0.013-0.092,0.02-0.136C6.003,5.301,6.01,5.256,6.018,5.211C6.027,5.167,6.034,5.123,6.044,5.08
			c0.004-0.022,0.009-0.043,0.014-0.065c0.005-0.021,0.01-0.042,0.016-0.063c0.004-0.021,0.01-0.042,0.015-0.063
			c0.005-0.02,0.012-0.041,0.017-0.061c0.006-0.02,0.011-0.039,0.017-0.059C6.13,4.75,6.136,4.731,6.142,4.712
			C6.153,4.675,6.167,4.639,6.18,4.604c0.012-0.035,0.026-0.068,0.04-0.1c0.006-0.017,0.013-0.031,0.02-0.047
			C6.247,4.442,6.254,4.428,6.26,4.414c0.002-0.002,0.003-0.005,0.004-0.008C3.434,3.267,0.292,4.369,0.292,4.369
			s0.014-0.002,0.042-0.008C0.363,4.357,0.404,4.349,0.459,4.341z"/>
		
			<linearGradient id="SVGID_21_" gradientUnits="userSpaceOnUse" x1="-102.7227" y1="-191.3594" x2="-91.264" y2="-198.9423" gradientTransform="matrix(-0.1592 -0.9872 0.9872 -0.1592 185.1844 -119.8213)">
			<stop  offset="0" style="stop-color:#12491D"/>
			<stop  offset="0.0427" style="stop-color:#1D511D"/>
			<stop  offset="0.2171" style="stop-color:#48741C"/>
			<stop  offset="0.3895" style="stop-color:#729719"/>
			<stop  offset="0.5568" style="stop-color:#97B714"/>
			<stop  offset="0.7174" style="stop-color:#B4D110"/>
			<stop  offset="0.8684" style="stop-color:#C6E10D"/>
			<stop  offset="1" style="stop-color:#CCE70B"/>
		</linearGradient>
		<path fill="url(#SVGID_21_)" d="M6.3,4.43c-0.005,0.015-0.01,0.03-0.015,0.045C6.28,4.49,6.276,4.507,6.271,4.522
			C6.262,4.555,6.252,4.588,6.245,4.624c-0.008,0.035-0.018,0.071-0.024,0.11C6.217,4.751,6.213,4.771,6.209,4.791
			C6.206,4.809,6.204,4.829,6.2,4.849S6.194,4.889,6.191,4.91C6.188,4.931,6.186,4.95,6.183,4.972
			c-0.002,0.02-0.005,0.042-0.008,0.063C6.174,5.056,6.171,5.077,6.169,5.098C6.165,5.142,6.163,5.185,6.16,5.229
			C6.157,5.273,6.156,5.317,6.154,5.361C6.152,5.406,6.152,5.451,6.15,5.496c0,0.089,0,0.179,0.004,0.266
			C6.156,5.806,6.158,5.85,6.16,5.893C6.162,5.937,6.165,5.979,6.167,6.02c0.006,0.084,0.013,0.164,0.02,0.24
			c0.008,0.078,0.015,0.149,0.023,0.215s0.016,0.127,0.024,0.181C6.237,6.673,6.24,6.687,6.242,6.702
			C6.48,6.936,6.71,7.184,6.931,7.44c0.061,0.07,0.121,0.143,0.181,0.215c0.12-0.346,0.283-0.777,0.477-1.196
			C7.694,6.229,7.81,6.004,7.929,5.8c0.051-0.088,0.103-0.172,0.156-0.25C7.531,5.041,6.925,4.677,6.303,4.421
			C6.302,4.424,6.301,4.428,6.3,4.43z"/>
		
			<linearGradient id="SVGID_22_" gradientUnits="userSpaceOnUse" x1="-105.1021" y1="-194.9546" x2="-93.6404" y2="-202.5395" gradientTransform="matrix(-0.1592 -0.9872 0.9872 -0.1592 185.1844 -119.8213)">
			<stop  offset="0" style="stop-color:#12491D"/>
			<stop  offset="0.0427" style="stop-color:#1D511D"/>
			<stop  offset="0.2171" style="stop-color:#48741C"/>
			<stop  offset="0.3895" style="stop-color:#729719"/>
			<stop  offset="0.5568" style="stop-color:#97B714"/>
			<stop  offset="0.7174" style="stop-color:#B4D110"/>
			<stop  offset="0.8684" style="stop-color:#C6E10D"/>
			<stop  offset="1" style="stop-color:#CCE70B"/>
		</linearGradient>
		<path fill="url(#SVGID_22_)" d="M8.583,12.361c-0.142-0.43-0.313-0.904-0.519-1.4c-0.111,0.002-0.253,0.008-0.416,0.016
			c-0.105,0.006-0.22,0.012-0.341,0.02s-0.249,0.02-0.38,0.031c-0.066,0.004-0.133,0.01-0.201,0.018
			c-0.034,0.004-0.067,0.006-0.102,0.01s-0.068,0.008-0.103,0.012c-0.139,0.016-0.279,0.033-0.418,0.053
			c-0.07,0.008-0.141,0.02-0.21,0.029c-0.07,0.012-0.139,0.02-0.208,0.031c-0.137,0.023-0.272,0.049-0.402,0.072
			c-0.065,0.014-0.13,0.025-0.191,0.041c-0.063,0.012-0.124,0.025-0.184,0.041c-0.118,0.025-0.23,0.055-0.333,0.084
			c-0.051,0.012-0.101,0.027-0.147,0.041c-0.046,0.014-0.09,0.025-0.131,0.039c-0.021,0.008-0.041,0.012-0.061,0.02
			c-0.019,0.006-0.038,0.014-0.055,0.018c-0.036,0.014-0.069,0.023-0.098,0.033c-0.019,0.006-0.036,0.014-0.052,0.018
			c0.499,0.627,1.184,1.092,2.166,1.271c1.518,0.17,2.378,0.598,2.785,0.863C8.888,13.359,8.757,12.895,8.583,12.361z"/>
		
			<linearGradient id="SVGID_23_" gradientUnits="userSpaceOnUse" x1="-103.894" y1="-191.2783" x2="-89.9021" y2="-200.5377" gradientTransform="matrix(-0.1592 -0.9872 0.9872 -0.1592 185.1844 -119.8213)">
			<stop  offset="0" style="stop-color:#12491D"/>
			<stop  offset="0.0427" style="stop-color:#1D511D"/>
			<stop  offset="0.2171" style="stop-color:#48741C"/>
			<stop  offset="0.3895" style="stop-color:#729719"/>
			<stop  offset="0.5568" style="stop-color:#97B714"/>
			<stop  offset="0.7174" style="stop-color:#B4D110"/>
			<stop  offset="0.8684" style="stop-color:#C6E10D"/>
			<stop  offset="1" style="stop-color:#CCE70B"/>
		</linearGradient>
		<path fill="url(#SVGID_23_)" d="M9.938,8.256C9.926,8.268,9.912,8.279,9.9,8.293C9.887,8.307,9.873,8.32,9.861,8.334
			C9.836,8.361,9.809,8.389,9.783,8.42c-0.055,0.059-0.107,0.125-0.16,0.195C9.596,8.65,9.568,8.684,9.543,8.721
			C9.516,8.758,9.49,8.795,9.465,8.832c-0.012,0.02-0.025,0.037-0.037,0.059C9.416,8.908,9.404,8.928,9.391,8.949
			C9.367,8.986,9.344,9.027,9.32,9.066C9.295,9.105,9.273,9.148,9.252,9.188s-0.043,0.08-0.064,0.121
			c-0.041,0.08-0.08,0.162-0.115,0.24c-0.037,0.08-0.068,0.156-0.098,0.229C8.945,9.852,8.919,9.92,8.896,9.986
			c-0.029,0.086-0.055,0.162-0.074,0.229c0.311,0.566,1.159,1.357,1.303,1.863c0.045-0.268,0.332-1.432,0.324-1.748
			c-0.023-0.867,0.135-0.893-0.441-2.139C9.984,8.211,9.961,8.232,9.938,8.256z"/>
		
			<linearGradient id="SVGID_24_" gradientUnits="userSpaceOnUse" x1="-102.7939" y1="-191.4673" x2="-91.3351" y2="-199.0503" gradientTransform="matrix(-0.1592 -0.9872 0.9872 -0.1592 185.1844 -119.8213)">
			<stop  offset="0" style="stop-color:#12491D"/>
			<stop  offset="0.0427" style="stop-color:#1D511D"/>
			<stop  offset="0.2171" style="stop-color:#48741C"/>
			<stop  offset="0.3895" style="stop-color:#729719"/>
			<stop  offset="0.5568" style="stop-color:#97B714"/>
			<stop  offset="0.7174" style="stop-color:#B4D110"/>
			<stop  offset="0.8684" style="stop-color:#C6E10D"/>
			<stop  offset="1" style="stop-color:#CCE70B"/>
		</linearGradient>
		<path fill="url(#SVGID_24_)" d="M8.052,5.863C7.958,6.075,7.871,6.305,7.792,6.54C7.635,7.008,7.514,7.489,7.435,7.85
			C7.422,7.908,7.41,7.965,7.399,8.016C7.541,8.201,7.678,8.387,7.81,8.576c0.271,0.387,0.521,0.781,0.749,1.172c0,0,0,0,0,0.002
			C8.583,9.705,8.61,9.658,8.639,9.611C8.682,9.539,8.73,9.465,8.781,9.387c0.049-0.076,0.104-0.154,0.16-0.23
			c0.03-0.039,0.057-0.078,0.086-0.115c0.033-0.039,0.061-0.078,0.092-0.115s0.063-0.074,0.094-0.111
			C9.23,8.797,9.246,8.779,9.262,8.762s0.033-0.035,0.049-0.053c0.031-0.035,0.066-0.07,0.098-0.104
			c0.033-0.033,0.066-0.064,0.1-0.096c0.066-0.063,0.131-0.121,0.197-0.172c0.029-0.025,0.063-0.051,0.094-0.074
			C9.814,8.252,9.828,8.24,9.844,8.229c0.016-0.01,0.029-0.021,0.045-0.031C9.92,8.176,9.951,8.154,9.98,8.137
			C9.828,7.82,9.461,6.583,8.166,5.625C8.126,5.701,8.09,5.78,8.052,5.863z"/>
	</g>
</g>
</svg>
